<?xml version="1.0" encoding="UTF-8" standalone="no"?>
<!DOCTYPE svg PUBLIC "-//W3C//DTD SVG 1.1//EN" "http://www.w3.org/Graphics/SVG/1.1/DTD/svg11.dtd">
<svg width="100%" height="100%" viewBox="0 0 600 600" version="1.1" xmlns="http://www.w3.org/2000/svg" xmlns:xlink="http://www.w3.org/1999/xlink" xml:space="preserve" xmlns:serif="http://www.serif.com/" style="fill-rule:evenodd;clip-rule:evenodd;stroke-linejoin:round;stroke-miterlimit:2;">
    <g transform="matrix(1.01641,0,0,1.02045,-9.8472,-12.2727)">
        <path d="M600,106.102C600,54.181 557.678,12.027 505.55,12.027L104.138,12.027C52.01,12.027 9.688,54.181 9.688,106.102L9.688,505.924C9.688,557.846 52.01,600 104.138,600L505.55,600C557.678,600 600,557.846 600,505.924L600,106.102Z" style="fill:rgb(221,0,84);"/>
    </g>
    <g transform="matrix(2.08091,0,0,1.3278,-212.321,-105.872)">
        <path d="M349.109,191.445C349.109,164.784 335.297,143.138 318.285,143.138L173.475,143.138C156.462,143.138 142.65,164.784 142.65,191.445L142.65,416.88C142.65,443.541 156.462,465.187 173.475,465.187L318.285,465.187C335.297,465.187 349.109,443.541 349.109,416.88L349.109,191.445Z" style="fill:white;"/>
    </g>
    <g transform="matrix(1,0,0,1,-3.34076,-4.16258)">
        <path d="M349.109,223.657C349.109,179.217 313.03,143.138 268.59,143.138L223.169,143.138C178.73,143.138 142.65,179.217 142.65,223.657L142.65,384.668C142.65,429.108 178.73,465.187 223.169,465.187L268.59,465.187C313.03,465.187 349.109,429.108 349.109,384.668L349.109,223.657Z" style="fill:rgb(217,4,118);"/>
    </g>
</svg>
