<?xml version="1.0" encoding="UTF-8" standalone="no"?>
<!DOCTYPE svg PUBLIC "-//W3C//DTD SVG 1.1//EN" "http://www.w3.org/Graphics/SVG/1.1/DTD/svg11.dtd">
<svg width="100%" height="100%" viewBox="0 0 600 600" version="1.1" xmlns="http://www.w3.org/2000/svg" xmlns:xlink="http://www.w3.org/1999/xlink" xml:space="preserve" xmlns:serif="http://www.serif.com/" style="fill-rule:evenodd;clip-rule:evenodd;stroke-linejoin:round;stroke-miterlimit:2;">
    <path d="M600,96C600,43.016 556.984,0 504,0L96,0C43.016,0 -0,43.016 -0,96L-0,504C-0,556.984 43.016,600 96,600L504,600C556.984,600 600,556.984 600,504L600,96ZM514.143,148.33C514.143,112.928 485.401,84.187 450,84.187L148.664,84.187C113.262,84.187 84.521,112.928 84.521,148.33L84.521,447.661C84.521,483.063 113.262,511.804 148.664,511.804L450,511.804C485.401,511.804 514.143,483.063 514.143,447.661L514.143,148.33Z" style="fill:rgb(75,74,74);"/>
    <g transform="matrix(1,0,0,1,-3.34076,-4.16258)">
        <path d="M349.109,223.657C349.109,179.217 313.03,143.138 268.59,143.138L223.169,143.138C178.73,143.138 142.65,179.217 142.65,223.657L142.65,384.668C142.65,429.108 178.73,465.187 223.169,465.187L268.59,465.187C313.03,465.187 349.109,429.108 349.109,384.668L349.109,223.657Z" style="fill:rgb(74,74,74);"/>
    </g>
</svg>
